<svg id="Layer_1" data-name="Layer 1" xmlns="http://www.w3.org/2000/svg" viewBox="0 0 300 200">
  <defs>
    <style>
      .cls-1 {
        fill: #71629e;
      }

      .cls-1, .cls-2 {
        stroke-width: 0px;
      }

      .cls-2 {
        fill: #fff;
      }
    </style>
  </defs>
  <polygon class="cls-1" points="259.49 145.58 259.49 169.45 236.03 141.7 259.49 145.58"/>
  <rect class="cls-1" x="127.88" y="74.14" width="138.75" height="65.27" rx="5.58" ry="5.58"/>
  <polygon class="cls-1" points="40.51 118.43 40.51 142.29 63.97 114.55 40.51 118.43"/>
  <rect class="cls-1" x="33.37" y="46.55" width="138.75" height="65.27" rx="4.37" ry="4.37"/>
  <g>
    <path class="cls-2" d="m53.1,56.84c-.6-.1-1.17-.14-1.7-.14-.92,0-1.67.18-2.27.53-.59.35-1.05.95-1.36,1.77-.31.83-.47,1.96-.47,3.39s.16,2.58.47,3.41.77,1.42,1.36,1.76,1.35.52,2.27.52c.67,0,1.31-.05,1.89-.16.59-.1,1.24-.27,1.97-.49l.65,2.58c-.74.29-1.51.51-2.3.65s-1.63.22-2.5.22c-2.41,0-4.24-.69-5.5-2.07s-1.88-3.52-1.88-6.42.65-4.99,1.95-6.39c1.3-1.4,3.18-2.1,5.64-2.1.75,0,1.51.06,2.25.19.75.13,1.4.31,1.97.53l-.75,2.6c-.53-.16-1.1-.29-1.7-.39Z"/>
    <path class="cls-2" d="m59.05,69.31c-1.04-1.04-1.56-2.66-1.56-4.85s.48-3.73,1.45-4.82c.96-1.09,2.37-1.64,4.22-1.64,1.69,0,2.95.49,3.79,1.46s1.25,2.5,1.25,4.59v1.3h-8.54v-1.81h6.9l-1.47,1.16v-1.33c0-.74-.07-1.32-.22-1.75-.14-.43-.36-.73-.65-.9-.29-.18-.68-.27-1.16-.27-.8,0-1.38.28-1.74.84s-.53,1.5-.53,2.8v.6c0,1.35.26,2.31.77,2.88.51.57,1.33.86,2.44.86.98,0,2.12-.17,3.42-.51l.43,2.29c-1.38.43-2.77.65-4.17.65-2.06,0-3.6-.52-4.64-1.57Z"/>
    <path class="cls-2" d="m71.44,70.56v-11.29l1.47,1.71-3.04-.46v-2.24h3.86l.96,2.46v9.81h-3.26Zm7.4-12.56c1.06,0,1.87.31,2.44.94s.84,1.54.84,2.72v8.9h-3.25v-8.46c0-.47-.11-.81-.33-1.04-.22-.23-.56-.34-1.02-.34-.42,0-.91.06-1.47.17s-1.17.28-1.83.51l-.41-1.4c1.64-1.33,3.32-2,5.04-2Z"/>
    <path class="cls-2" d="m84.24,58.29h8.49l-.39,2.48h-8.1v-2.48Zm2.7,11.61c-.66-.65-.99-1.66-.99-3.03v-11.43l3.26-.51v11.87c0,.5.1.85.3,1.06s.55.31,1.05.31,1.09-.07,1.83-.22l.34,2.6c-1.01.21-1.92.31-2.73.31-1.38,0-2.4-.33-3.06-.98Z"/>
    <path class="cls-2" d="m95.46,59.28l1.47,1.71-3.04-.46v-2.24h3.86l.96,2.34v9.94h-3.26v-11.29Zm4.85-.63c.76-.35,1.51-.56,2.27-.63l.46,3.18c-.87-.1-1.7-.1-2.48-.02-.79.08-1.54.27-2.24.58l-.17-1.54c.69-.69,1.41-1.21,2.17-1.57Z"/>
    <path class="cls-2" d="m105.62,69.31c-1.04-1.04-1.56-2.66-1.56-4.85s.48-3.73,1.45-4.82c.96-1.09,2.37-1.64,4.22-1.64,1.69,0,2.95.49,3.79,1.46s1.25,2.5,1.25,4.59v1.3h-8.54v-1.81h6.9l-1.47,1.16v-1.33c0-.74-.07-1.32-.22-1.75-.14-.43-.36-.73-.65-.9-.29-.18-.68-.27-1.16-.27-.8,0-1.38.28-1.74.84s-.53,1.5-.53,2.8v.6c0,1.35.26,2.31.77,2.88.51.57,1.33.86,2.44.86.98,0,2.12-.17,3.42-.51l.43,2.29c-1.38.43-2.77.65-4.17.65-2.06,0-3.6-.52-4.64-1.57Z"/>
    <path class="cls-2" d="m122.27,60.77v-2.48h8.42l-.43,2.48h-7.98Zm6.82-5.43c-.47,0-.82.05-1.05.14-.23.1-.4.26-.49.48-.1.23-.14.56-.14,1.01v13.58h-3.26v-13.58c0-1.45.36-2.52,1.08-3.23.72-.71,1.81-1.06,3.26-1.06.82,0,1.63.08,2.44.24l-.46,2.53c-.53-.08-.99-.12-1.38-.12Z"/>
    <path class="cls-2" d="m133.03,69.27c-.95-1.07-1.42-2.69-1.42-4.86s.49-3.72,1.48-4.8c.99-1.08,2.45-1.62,4.38-1.62s3.49.53,4.44,1.59c.95,1.06,1.42,2.67,1.42,4.82s-.49,3.75-1.48,4.83c-.99,1.09-2.45,1.63-4.38,1.63s-3.49-.53-4.44-1.6Zm5.88-1.34c.35-.26.61-.67.77-1.23.16-.56.24-1.33.24-2.29s-.08-1.72-.24-2.28c-.16-.55-.42-.96-.77-1.21s-.84-.37-1.45-.37-1.07.12-1.44.37c-.36.25-.62.65-.78,1.21-.16.55-.24,1.31-.24,2.28s.08,1.73.24,2.29c.16.56.42.97.77,1.23.35.26.84.39,1.45.39s1.09-.13,1.45-.39Z"/>
    <path class="cls-2" d="m146.31,59.28l1.47,1.71-3.04-.46v-2.24h3.86l.96,2.34v9.94h-3.26v-11.29Zm4.85-.63c.76-.35,1.51-.56,2.27-.63l.46,3.18c-.87-.1-1.7-.1-2.48-.02-.79.08-1.54.27-2.24.58l-.17-1.54c.69-.69,1.41-1.21,2.17-1.57Z"/>
  </g>
  <g id="Text_Block" data-name="Text Block">
    <g>
      <path class="cls-2" d="m56.99,82.74c1.33.65,2.31,1.68,2.92,3.08.61,1.4.92,3.24.92,5.53,0,2.4-.3,4.29-.91,5.67-.61,1.38-1.58,2.38-2.94,3.01-1.35.62-3.2.94-5.54.94h-5.81v-18.06l1.76,1.99-3.77-.45v-2.67h8.08c2.19,0,3.96.33,5.29.98Zm-2.16,14.28c.65-.34,1.12-.95,1.39-1.83.27-.88.41-2.17.41-3.87,0-1.57-.14-2.79-.41-3.67s-.74-1.51-1.4-1.89c-.66-.38-1.6-.57-2.81-.57h-4.17l1.76-1.81v15.94l-1.76-1.79h4.11c1.27,0,2.23-.17,2.88-.51Z"/>
      <path class="cls-2" d="m66.47,89.7l-3.57-.54v-2.64h5.7v14.43h-3.86v-13.27l1.73,2.01Zm1.73-9.67v4.08h-4v-4.08h4Z"/>
      <path class="cls-2" d="m72.97,105.56c-1-.64-1.5-1.58-1.5-2.81,0-.7.25-1.36.77-1.97s1.22-1.19,2.13-1.72l1.73.6c-.42.45-.73.9-.94,1.35-.21.44-.31.85-.31,1.21,0,.57.25,1,.75,1.29.5.29,1.31.44,2.42.44s1.89-.16,2.44-.48c.55-.32.82-.81.82-1.47,0-.47-.17-.82-.51-1.04-.34-.22-.89-.33-1.65-.33h-4.57l-.88-.51-1.3-1.53,2.58-3.94,1.19.96-.85,2.58h4.37c1.78,0,3.09.31,3.93.94.84.62,1.26,1.54,1.26,2.75,0,1.55-.62,2.71-1.86,3.49-1.24.77-3.04,1.16-5.4,1.16-2.08,0-3.62-.32-4.62-.96Zm.52-10.29c-1.01-.93-1.52-2.16-1.52-3.71,0-1.12.23-2.07.69-2.88s1.13-1.42,2.01-1.84c.88-.43,1.92-.64,3.13-.64.7,0,1.37.08,2,.25.63.17,1.19.43,1.66.77l-.28,1.16c.43.13.82.36,1.16.69.34.33.6.73.78,1.21.18.47.27.97.27,1.5,0,.96-.21,1.82-.62,2.55s-1.05,1.31-1.9,1.72-1.92.61-3.21.61c-1.78,0-3.17-.46-4.18-1.39Zm5.86-1.7c.34-.43.51-1.12.51-2.07,0-1-.17-1.73-.5-2.18s-.86-.68-1.57-.68-1.25.22-1.59.67c-.34.45-.51,1.15-.51,2.11s.17,1.72.5,2.16c.33.43.86.65,1.57.65s1.25-.22,1.59-.65Zm-.51-7.03h5.76v1.9l-3.69.85-2.07-2.75Z"/>
      <path class="cls-2" d="m89.7,89.7l-3.57-.54v-2.64h5.7v14.43h-3.86v-13.27l1.73,2.01Zm1.73-9.67v4.08h-4v-4.08h4Z"/>
      <path class="cls-2" d="m94.55,86.53h9.98l-.45,2.92h-9.53v-2.92Zm3.18,13.65c-.78-.77-1.16-1.95-1.16-3.56v-13.44l3.83-.6v13.95c0,.59.12,1,.35,1.25.24.25.65.37,1.23.37s1.29-.08,2.16-.25l.4,3.06c-1.19.25-2.26.37-3.2.37-1.63,0-2.83-.38-3.6-1.15Z"/>
      <path class="cls-2" d="m107.17,100.21c-.74-.75-1.11-1.73-1.11-2.96,0-1.02.19-1.87.57-2.54s.96-1.19,1.74-1.56c.78-.37,1.8-.6,3.05-.7l3.37-.23v2.1l-2.44.23c-.64.06-1.14.16-1.49.31-.35.15-.6.37-.74.65-.14.28-.21.67-.21,1.16,0,.55.16.98.48,1.29.32.31.77.47,1.33.47.47,0,.96-.07,1.46-.21.5-.14,1.05-.36,1.66-.67l.54,1.25c-.76.83-1.57,1.46-2.45,1.89-.88.42-1.82.64-2.82.64-1.23,0-2.21-.37-2.95-1.12Zm7.66-1.8l-.51-.34v-7c0-.68-.17-1.17-.52-1.46s-.94-.44-1.77-.44c-.57,0-1.22.06-1.97.17s-1.54.27-2.4.48l-.59-2.78c1.98-.57,3.95-.85,5.9-.85,3.44,0,5.16,1.5,5.16,4.51v8.42l-.68-1.16,2.55.34v2.67h-4.65l-.51-2.55Z"/>
      <path class="cls-2" d="m122.65,81.42l1.7,2.01-3.57-.51v-2.67h5.67v20.7h-3.8v-19.54Z"/>
      <path class="cls-2" d="m138.05,82.9l1.76,1.99-3.77-.45v-2.67h5.98v17.47l-1.7-1.7h9.58v3.43h-11.85v-18.06Z"/>
      <path class="cls-2" d="m152.65,100.21c-.74-.75-1.11-1.73-1.11-2.96,0-1.02.19-1.87.57-2.54s.96-1.19,1.74-1.56c.78-.37,1.8-.6,3.05-.7l3.37-.23v2.1l-2.44.23c-.64.06-1.14.16-1.49.31-.35.15-.6.37-.74.65-.14.28-.21.67-.21,1.16,0,.55.16.98.48,1.29.32.31.77.47,1.33.47.47,0,.96-.07,1.46-.21.5-.14,1.05-.36,1.66-.67l.54,1.25c-.76.83-1.57,1.46-2.45,1.89-.88.42-1.82.64-2.82.64-1.23,0-2.21-.37-2.95-1.12Zm7.66-1.8l-.51-.34v-7c0-.68-.17-1.17-.52-1.46s-.94-.44-1.77-.44c-.57,0-1.22.06-1.97.17s-1.54.27-2.4.48l-.59-2.78c1.98-.57,3.95-.85,5.9-.85,3.44,0,5.16,1.5,5.16,4.51v8.42l-.68-1.16,2.55.34v2.67h-4.65l-.51-2.55Z"/>
      <path class="cls-2" d="m168.42,100.96v-13.27l1.73,2.01-3.57-.54v-2.64h4.54l1.13,2.89v11.54h-3.83Zm8.71-14.77c1.25,0,2.2.37,2.86,1.11s.99,1.81.99,3.21v10.46h-3.83v-9.95c0-.55-.13-.95-.38-1.22-.25-.26-.66-.4-1.21-.4-.49,0-1.07.07-1.73.2-.66.13-1.38.33-2.16.6l-.48-1.64c1.93-1.57,3.9-2.35,5.93-2.35Z"/>
      <path class="cls-2" d="m185.12,105.56c-1-.64-1.5-1.58-1.5-2.81,0-.7.25-1.36.77-1.97s1.22-1.19,2.13-1.72l1.73.6c-.42.45-.73.9-.94,1.35-.21.44-.31.85-.31,1.21,0,.57.25,1,.75,1.29.5.29,1.31.44,2.42.44s1.89-.16,2.44-.48c.55-.32.82-.81.82-1.47,0-.47-.17-.82-.51-1.04-.34-.22-.89-.33-1.65-.33h-4.57l-.88-.51-1.3-1.53,2.58-3.94,1.19.96-.85,2.58h4.37c1.78,0,3.09.31,3.93.94.84.62,1.26,1.54,1.26,2.75,0,1.55-.62,2.71-1.86,3.49-1.24.77-3.04,1.16-5.4,1.16-2.08,0-3.62-.32-4.62-.96Zm.52-10.29c-1.01-.93-1.52-2.16-1.52-3.71,0-1.12.23-2.07.69-2.88s1.13-1.42,2.01-1.84,1.92-.64,3.13-.64c.7,0,1.37.08,2,.25.63.17,1.19.43,1.66.77l-.28,1.16c.43.13.82.36,1.16.69.34.33.6.73.78,1.21.18.47.27.97.27,1.5,0,.96-.21,1.82-.62,2.55s-1.05,1.31-1.9,1.72-1.92.61-3.21.61c-1.78,0-3.17-.46-4.18-1.39Zm5.86-1.7c.34-.43.51-1.12.51-2.07,0-1-.17-1.73-.5-2.18s-.86-.68-1.57-.68-1.25.22-1.59.67c-.34.45-.51,1.15-.51,2.11s.17,1.72.5,2.16c.33.43.86.65,1.57.65s1.25-.22,1.59-.65Zm-.51-7.03h5.76v1.9l-3.69.85-2.07-2.75Z"/>
      <path class="cls-2" d="m204.24,101.27c-1.27,0-2.27-.38-3.01-1.13s-1.11-1.81-1.11-3.15v-9.3l1.73,2.01-3.57-.54v-2.64h5.67v9.93c0,.55.13.96.4,1.23s.66.41,1.19.41,1.12-.07,1.77-.2c.65-.13,1.36-.34,2.11-.62l.62,1.67c-2.1,1.55-4.04,2.33-5.81,2.33Zm6.35-11.57l-3.57-.54v-2.64h5.67v14.43h-2.69l-1.13-2.75v-10.52l1.73,2.01Z"/>
      <path class="cls-2" d="m216.77,100.21c-.74-.75-1.11-1.73-1.11-2.96,0-1.02.19-1.87.57-2.54s.96-1.19,1.74-1.56c.78-.37,1.8-.6,3.05-.7l3.37-.23v2.1l-2.44.23c-.64.06-1.14.16-1.49.31-.35.15-.6.37-.74.65-.14.28-.21.67-.21,1.16,0,.55.16.98.48,1.29.32.31.77.47,1.33.47.47,0,.96-.07,1.46-.21.5-.14,1.05-.36,1.66-.67l.54,1.25c-.76.83-1.57,1.46-2.45,1.89-.88.42-1.82.64-2.82.64-1.23,0-2.21-.37-2.95-1.12Zm7.66-1.8l-.51-.34v-7c0-.68-.17-1.17-.52-1.46s-.94-.44-1.77-.44c-.57,0-1.22.06-1.97.17s-1.54.27-2.4.48l-.59-2.78c1.98-.57,3.95-.85,5.9-.85,3.44,0,5.16,1.5,5.16,4.51v8.42l-.68-1.16,2.55.34v2.67h-4.65l-.51-2.55Z"/>
      <path class="cls-2" d="m232.37,105.56c-1-.64-1.5-1.58-1.5-2.81,0-.7.25-1.36.77-1.97s1.22-1.19,2.13-1.72l1.73.6c-.42.45-.73.9-.94,1.35-.21.44-.31.85-.31,1.21,0,.57.25,1,.75,1.29.5.29,1.31.44,2.42.44s1.89-.16,2.44-.48c.55-.32.82-.81.82-1.47,0-.47-.17-.82-.51-1.04-.34-.22-.89-.33-1.65-.33h-4.57l-.88-.51-1.3-1.53,2.58-3.94,1.19.96-.85,2.58h4.37c1.78,0,3.09.31,3.93.94.84.62,1.26,1.54,1.26,2.75,0,1.55-.62,2.71-1.86,3.49-1.24.77-3.04,1.16-5.4,1.16-2.08,0-3.62-.32-4.62-.96Zm.52-10.29c-1.01-.93-1.52-2.16-1.52-3.71,0-1.12.23-2.07.69-2.88s1.13-1.42,2.01-1.84,1.92-.64,3.13-.64c.7,0,1.37.08,2,.25.63.17,1.19.43,1.66.77l-.28,1.16c.43.13.82.36,1.16.69.34.33.6.73.78,1.21.18.47.27.97.27,1.5,0,.96-.21,1.82-.62,2.55s-1.05,1.31-1.9,1.72-1.92.61-3.21.61c-1.78,0-3.17-.46-4.18-1.39Zm5.86-1.7c.34-.43.51-1.12.51-2.07,0-1-.17-1.73-.5-2.18s-.86-.68-1.57-.68-1.25.22-1.59.67c-.34.45-.51,1.15-.51,2.11s.17,1.72.5,2.16c.33.43.86.65,1.57.65s1.25-.22,1.59-.65Zm-.51-7.03h5.76v1.9l-3.69.85-2.07-2.75Z"/>
      <path class="cls-2" d="m247.52,99.49c-1.22-1.23-1.83-3.13-1.83-5.7s.57-4.39,1.7-5.67c1.13-1.29,2.79-1.93,4.96-1.93,1.98,0,3.47.57,4.45,1.72.98,1.14,1.47,2.94,1.47,5.4v1.53h-10.04v-2.13h8.11l-1.73,1.36v-1.56c0-.87-.08-1.55-.26-2.06-.17-.5-.42-.86-.77-1.06-.34-.21-.79-.31-1.36-.31-.95,0-1.63.33-2.04.99-.42.66-.62,1.76-.62,3.29v.71c0,1.59.3,2.72.91,3.39.6.67,1.56,1.01,2.86,1.01,1.15,0,2.5-.2,4.03-.59l.51,2.69c-1.63.51-3.26.77-4.91.77-2.42,0-4.24-.61-5.46-1.84Z"/>
    </g>
    <g>
      <path class="cls-2" d="m139.41,115.36l-3.97-.48v-2.81h6.33v20.22h-4.18v-19.03l1.82,2.09Z"/>
      <path class="cls-2" d="m146.72,132.29v-13.98l1.82,2.12-3.76-.57v-2.78h4.78l1.2,3.05v12.16h-4.03Zm9.17-15.56c1.31,0,2.32.39,3.02,1.17.7.78,1.05,1.9,1.05,3.38v11.02h-4.03v-10.48c0-.58-.13-1-.4-1.28s-.69-.42-1.27-.42c-.52,0-1.12.07-1.82.21-.7.14-1.45.35-2.27.63l-.51-1.73c2.03-1.65,4.11-2.48,6.24-2.48Z"/>
      <path class="cls-2" d="m172.66,132.46c-.85.15-1.63.22-2.34.22-2.37,0-4.16-.67-5.38-2.02-1.21-1.34-1.82-3.34-1.82-5.99s.62-4.56,1.87-5.91c1.24-1.35,3.06-2.03,5.45-2.03.7,0,1.43.07,2.21.21.78.14,1.45.32,2.03.54l-.81,2.9c-1.01-.32-2.02-.48-3.02-.48-1.19,0-2.08.39-2.66,1.17-.58.78-.87,1.98-.87,3.61s.3,2.87.9,3.66c.6.79,1.5,1.18,2.72,1.18.44,0,.94-.04,1.51-.13.57-.09,1.15-.21,1.75-.37l.81,2.84c-.72.26-1.5.46-2.34.61Z"/>
      <path class="cls-2" d="m177.79,111.71l1.79,2.12-3.76-.54v-2.81h5.97v21.8h-4v-20.58Z"/>
      <path class="cls-2" d="m191.05,132.62c-1.33,0-2.39-.4-3.17-1.2-.78-.8-1.17-1.9-1.17-3.32v-9.8l1.82,2.12-3.76-.57v-2.78h5.97v10.45c0,.58.14,1.01.42,1.3.28.29.7.43,1.25.43s1.18-.07,1.87-.21c.69-.14,1.43-.36,2.23-.66l.66,1.76c-2.21,1.63-4.25,2.45-6.12,2.45Zm6.69-12.19l-3.76-.57v-2.78h5.97v15.2h-2.84l-1.19-2.9v-11.08l1.82,2.12Z"/>
      <path class="cls-2" d="m203,131.43l.99-2.78c1.04.4,1.97.69,2.79.87.83.18,1.56.27,2.2.27.76,0,1.33-.14,1.72-.42.39-.28.58-.71.58-1.28,0-.36-.12-.64-.34-.85-.23-.21-.54-.38-.93-.51-.39-.13-.88-.25-1.48-.37-1.02-.24-1.86-.49-2.54-.76s-1.26-.72-1.75-1.36c-.49-.64-.73-1.5-.73-2.6,0-1.51.52-2.71,1.55-3.58,1.04-.88,2.47-1.31,4.3-1.31.86,0,1.72.09,2.6.27.88.18,1.75.44,2.63.78l-1.05,2.75c-.66-.3-1.34-.53-2.06-.69-.72-.16-1.38-.24-2-.24-.7,0-1.23.13-1.61.4-.38.27-.57.66-.57,1.18,0,.38.12.69.37.93.25.24.57.42.97.55.4.13.91.26,1.52.4,1.02.24,1.85.49,2.51.76.66.27,1.22.71,1.7,1.31.48.61.72,1.44.72,2.49,0,1.59-.53,2.83-1.58,3.72s-2.55,1.33-4.48,1.33-3.86-.42-6.03-1.25Z"/>
      <path class="cls-2" d="m220.59,120.44l-3.76-.57v-2.78h6v15.2h-4.06v-13.98l1.82,2.12Zm1.82-10.18v4.3h-4.21v-4.3h4.21Z"/>
      <path class="cls-2" d="m227.99,130.69c-1.17-1.32-1.76-3.33-1.76-6.02s.61-4.61,1.84-5.94,3.03-2,5.42-2,4.32.66,5.5,1.97c1.17,1.31,1.76,3.31,1.76,5.97s-.61,4.64-1.84,5.99c-1.22,1.34-3.03,2.02-5.42,2.02s-4.32-.66-5.5-1.99Zm7.29-1.66c.44-.32.76-.83.96-1.52.2-.7.3-1.64.3-2.84s-.1-2.14-.3-2.82c-.2-.69-.52-1.18-.96-1.49-.44-.31-1.04-.46-1.79-.46s-1.33.16-1.78.46-.77.81-.97,1.49c-.2.69-.3,1.63-.3,2.82s.1,2.14.3,2.84.52,1.21.96,1.52c.44.32,1.04.48,1.79.48s1.35-.16,1.79-.48Z"/>
      <path class="cls-2" d="m244.45,132.29v-13.98l1.82,2.12-3.76-.57v-2.78h4.78l1.2,3.05v12.16h-4.03Zm9.17-15.56c1.31,0,2.32.39,3.02,1.17.7.78,1.05,1.9,1.05,3.38v11.02h-4.03v-10.48c0-.58-.13-1-.4-1.28s-.69-.42-1.27-.42c-.52,0-1.12.07-1.82.21-.7.14-1.45.35-2.27.63l-.51-1.73c2.03-1.65,4.11-2.48,6.24-2.48Z"/>
    </g>
  </g>
</svg>
