<svg width="233" height="120" xmlns="http://www.w3.org/2000/svg"><path d="M92.584 22.239h-2.668c-.796 0-1.41-.613-1.41-1.35 0-.766.583-1.379 1.41-1.379h4.323c.705 0 1.288.583 1.288 1.318v6.439c0 1.133-.43 1.777-1.41 2.329-1.35.766-3.158 1.103-4.782 1.103-6.01 0-8.523-4.536-8.523-10.515 0-5.793 2.391-10.638 8.37-10.638 1.47 0 3.646.369 5.088 1.289.52.367.889.766.889 1.348 0 .705-.46 1.41-1.318 1.41-.49 0-.981-.307-1.472-.522a6.354 6.354 0 00-3.004-.735c-4.262 0-5.488 3.74-5.488 7.848 0 4.415 1.44 7.757 5.549 7.757 1.105 0 2.391-.306 3.158-.767V22.24zm7.45 5.61h2.482v-16.86h-2.422c-.705 0-1.257-.522-1.257-1.259 0-.705.552-1.285 1.257-1.285h4.2c.736 0 1.288.58 1.288 1.317v18.087h2.513c.706 0 1.257.551 1.257 1.257 0 .735-.551 1.287-1.257 1.287h-8.062a1.257 1.257 0 01-1.287-1.287c0-.706.552-1.257 1.287-1.257zm18.302-12.662c4.292 0 6.745 3.342 6.745 7.757 0 4.384-2.392 7.757-6.745 7.757-4.384 0-6.775-3.373-6.775-7.757 0-4.415 2.453-7.757 6.775-7.757zm3.679 7.757c0-3.16-1.41-5.211-3.679-5.211-2.27 0-3.678 2.052-3.678 5.211 0 3.158 1.409 5.243 3.678 5.243 2.268 0 3.679-2.085 3.679-5.243zm10.455-7.019c.766-.308 1.84-.706 2.974-.706 4.599 0 6.806 3.095 6.806 7.725 0 5.09-2.453 7.755-5.826 7.755-1.226 0-3.003-.611-4.352-1.962l-.215.766c-.185.615-.552 1.074-1.38 1.074-.92 0-1.379-.673-1.379-1.472 0-.551.306-1.35.306-2.79V9.791a1.52 1.52 0 011.533-1.533c.889 0 1.533.677 1.533 1.533v6.134zm0 10.759c1.225 1.103 2.514 1.503 3.341 1.503 2.33 0 3.342-2.086 3.342-5.243 0-3.127-1.042-5.213-3.74-5.213-1.073 0-2.207.307-2.943.705v8.248zm22.042-6.132c0-1.564-.674-2.82-3.005-2.82-.644 0-1.318.123-2.053.367-.522.154-1.103.37-1.595.37-.828 0-1.257-.614-1.257-1.258 0-.49.307-.86.951-1.196 1.103-.552 2.943-.828 4.2-.828 4.691 0 5.825 2.851 5.825 5.365v5.641c0 1.75.307 2.392.307 2.973 0 .738-.43 1.411-1.35 1.411-.858 0-1.288-.522-1.41-.98l-.184-.827c-1.103 1.102-2.728 1.93-4.598 1.93-2.944 0-4.813-1.84-4.813-4.476 0-2.788 2.206-4.415 5.855-4.415h3.127v-1.257zm0 3.403h-3.034c-1.902 0-2.944.738-2.944 2.085 0 1.32.95 2.147 2.514 2.147 1.011 0 2.33-.461 3.464-1.503v-2.729zm8.34 3.894h2.482v-16.86h-2.422c-.705 0-1.257-.522-1.257-1.259 0-.705.552-1.285 1.257-1.285h4.2c.736 0 1.288.58 1.288 1.317v18.087h2.514c.705 0 1.257.551 1.257 1.257 0 .735-.552 1.287-1.257 1.287h-8.063a1.257 1.257 0 01-1.287-1.287c0-.706.552-1.257 1.287-1.257zM81.607 39.593c0-.83.676-1.535 1.533-1.535h3.802c5.671 0 9.013 3.158 9.013 10.302 0 7.113-3.618 10.24-9.044 10.24h-3.77a1.52 1.52 0 01-1.534-1.533V39.593zm5.243 16.278c4.14 0 6.039-2.238 6.039-7.51 0-5.336-1.87-7.574-6.008-7.574h-2.177v15.084h2.146zm15.083-16.494c0-1.102.889-1.99 1.992-1.99 1.105 0 1.994.888 1.994 1.99a1.988 1.988 0 01-1.994 1.992 1.988 1.988 0 01-1.992-1.992zm-1.35 16.678h2.485v-9.779h-2.422c-.705 0-1.257-.553-1.257-1.288 0-.707.552-1.288 1.257-1.288h4.2c.736 0 1.287.581 1.287 1.318v11.037h2.514c.704 0 1.257.552 1.257 1.257 0 .735-.553 1.288-1.257 1.288h-8.063c-.704 0-1.256-.553-1.256-1.288 0-.705.552-1.257 1.256-1.257zm15.269-8.462c0 1.38 1.44 1.869 3.22 2.392 2.267.705 4.935 1.594 4.935 4.475 0 2.914-2.668 4.446-5.734 4.446-1.318 0-3.493-.275-4.66-.827-.734-.337-1.042-.738-1.042-1.257 0-.614.43-1.259 1.257-1.259.522 0 1.043.246 1.656.43.858.277 1.84.52 2.76.52 1.747 0 2.697-.857 2.697-1.93 0-1.256-1.288-1.716-3.188-2.269-1.901-.581-4.967-1.47-4.967-4.568 0-2.911 2.698-4.353 5.304-4.353 1.35 0 3.373.368 4.415.89.582.306 1.011.734 1.011 1.318 0 .552-.368 1.165-1.164 1.165-.491 0-.982-.245-1.533-.43a6.482 6.482 0 00-2.514-.521c-1.717 0-2.453.797-2.453 1.778zm20.51 1.165c0-1.563-.674-2.821-3.005-2.821-.644 0-1.318.125-2.053.37-.522.152-1.104.368-1.596.368-.827 0-1.257-.613-1.257-1.257 0-.492.308-.86.952-1.198 1.103-.551 2.943-.826 4.2-.826 4.691 0 5.824 2.851 5.824 5.364v5.64c0 1.75.308 2.394.308 2.974 0 .738-.43 1.41-1.35 1.41-.859 0-1.288-.521-1.41-.98l-.184-.827c-1.103 1.102-2.729 1.93-4.598 1.93-2.944 0-4.814-1.84-4.814-4.474 0-2.79 2.207-4.416 5.856-4.416h3.127v-1.257zm0 3.403h-3.035c-1.9 0-2.943.738-2.943 2.086 0 1.318.95 2.145 2.514 2.145 1.01 0 2.329-.46 3.464-1.501v-2.73zm11.22-8.032c.767-.305 1.84-.705 2.975-.705 4.599 0 6.806 3.096 6.806 7.726 0 5.089-2.453 7.755-5.826 7.755-1.226 0-3.003-.612-4.353-1.962l-.214.767c-.185.613-.552 1.073-1.38 1.073-.92 0-1.379-.673-1.379-1.472 0-.552.306-1.348.306-2.79V37.997a1.52 1.52 0 011.533-1.533c.888 0 1.532.677 1.532 1.533v6.132zm0 10.76c1.226 1.104 2.514 1.503 3.342 1.503 2.33 0 3.342-2.084 3.342-5.242 0-3.126-1.043-5.213-3.74-5.213-1.074 0-2.207.308-2.944.705v8.247zm15.177-15.512c0-1.102.888-1.99 1.992-1.99 1.105 0 1.993.888 1.993 1.99a1.988 1.988 0 01-1.993 1.992 1.988 1.988 0 01-1.992-1.992zm-1.35 16.678h2.484v-9.779h-2.423c-.705 0-1.255-.553-1.255-1.288 0-.707.55-1.288 1.255-1.288h4.2c.736 0 1.29.581 1.29 1.318v11.037h2.512c.705 0 1.258.552 1.258 1.257 0 .735-.553 1.288-1.258 1.288h-8.063c-.705 0-1.257-.553-1.257-1.288 0-.705.552-1.257 1.257-1.257zm12.263 0h2.483v-16.86h-2.421c-.706 0-1.257-.523-1.257-1.26 0-.703.551-1.285 1.257-1.285h4.2c.735 0 1.287.582 1.287 1.317v18.087h2.514c.705 0 1.257.553 1.257 1.257 0 .735-.552 1.287-1.257 1.287h-8.063a1.257 1.257 0 01-1.286-1.287c0-.704.551-1.257 1.286-1.257zm13.766-16.678c0-1.102.888-1.99 1.992-1.99 1.105 0 1.993.888 1.993 1.99a1.988 1.988 0 01-1.993 1.992 1.988 1.988 0 01-1.992-1.992zm-1.35 16.678h2.484v-9.779h-2.423c-.705 0-1.255-.553-1.255-1.288 0-.707.55-1.288 1.255-1.288h4.2c.736 0 1.29.581 1.29 1.318v11.037h2.512c.705 0 1.258.552 1.258 1.257 0 .735-.553 1.288-1.258 1.288h-8.063c-.705 0-1.257-.553-1.257-1.288 0-.705.552-1.257 1.257-1.257zm11.099-9.78c-.706 0-1.257-.552-1.257-1.286 0-.705.551-1.29 1.257-1.29h1.932V40.45c0-.857.674-1.533 1.531-1.533.86 0 1.533.676 1.533 1.533v3.25h3.588c.705 0 1.257.584 1.257 1.289 0 .734-.552 1.287-1.257 1.287h-3.588v7.542c0 1.807.828 2.482 1.994 2.482 1.042 0 1.38-.551 2.023-.551.643 0 1.226.43 1.226 1.196 0 .457-.215.888-.737 1.195-.95.612-2.236.767-2.942.767-3.126 0-4.628-2.36-4.628-5.15v-7.481h-1.932zm17.996 13.336l-4.997-13.889a2.603 2.603 0 01-.123-.672c0-.828.675-1.533 1.503-1.533.705 0 1.287.458 1.471 1.074l3.618 11.095h.09l3.62-11.095c.183-.616.796-1.074 1.47-1.074.859 0 1.503.705 1.503 1.533 0 .183-.031.489-.092.672l-4.905 13.736c-1.134 3.218-2.667 4.629-4.72 5.212a4.92 4.92 0 01-1.35.215c-1.135 0-1.533-.83-1.533-1.442 0-.734.52-1.226 1.348-1.378 1.41-.339 2.422-.767 3.097-2.454zM81.547 84.077h2.36V68.994h-2.36c-.766 0-1.38-.614-1.38-1.35 0-.766.614-1.379 1.38-1.379h7.818c.766 0 1.38.613 1.38 1.38 0 .735-.614 1.35-1.38 1.35h-2.392v15.082h2.392c.766 0 1.38.612 1.38 1.349 0 .766-.614 1.38-1.38 1.38h-7.818c-.766 0-1.38-.614-1.38-1.38 0-.737.614-1.35 1.38-1.35zm13.305-8.093c0-1.41-.337-2.207-.337-2.79 0-.767.46-1.442 1.38-1.442.797 0 1.225.4 1.379.981l.215.828c1.349-1.287 3.065-1.961 4.354-1.961 3.156 0 5.21 1.533 5.21 5.67v8.187c0 .858-.673 1.532-1.532 1.532-.889 0-1.533-.674-1.533-1.532v-8.188c0-2.237-.888-3.125-2.758-3.125-1.043 0-2.33.644-3.312 1.471v9.842c0 .858-.674 1.532-1.533 1.532-.889 0-1.533-.674-1.533-1.532v-9.473zm16.985 0c0-1.41-.337-2.207-.337-2.79 0-.767.46-1.442 1.38-1.442.797 0 1.225.4 1.379.981l.214.828c1.35-1.287 3.066-1.961 4.354-1.961 3.157 0 5.212 1.533 5.212 5.67v8.187c0 .858-.674 1.532-1.533 1.532-.889 0-1.533-.674-1.533-1.532v-8.188c0-2.237-.889-3.125-2.759-3.125-1.042 0-2.33.644-3.311 1.471v9.842c0 .858-.674 1.532-1.533 1.532-.889 0-1.533-.674-1.533-1.532v-9.473zm23.055-4.385c4.292 0 6.744 3.342 6.744 7.756 0 4.384-2.391 7.757-6.744 7.757-4.384 0-6.775-3.373-6.775-7.757 0-4.414 2.452-7.756 6.775-7.756zm3.679 7.756c0-3.158-1.41-5.211-3.679-5.211-2.27 0-3.678 2.053-3.678 5.211 0 3.158 1.409 5.244 3.678 5.244 2.268 0 3.679-2.086 3.679-5.244zm6.162-5.272c-.061-.245-.154-.615-.154-.828 0-.828.674-1.533 1.503-1.533.704 0 1.318.46 1.47 1.074l3.496 11.311h.092l3.434-11.311c.183-.615.796-1.074 1.472-1.074.857 0 1.533.705 1.533 1.533 0 .213-.093.583-.154.828l-3.434 10.636c-.306 1.012-1.042 2.27-2.912 2.27-1.87 0-2.607-1.258-2.912-2.27l-3.434-10.636zm24.342 2.88c0-1.562-.674-2.82-3.004-2.82-.645 0-1.319.123-2.054.37-.522.153-1.105.367-1.595.367-.828 0-1.257-.614-1.257-1.258 0-.49.307-.859.951-1.195 1.104-.553 2.944-.828 4.2-.828 4.691 0 5.825 2.852 5.825 5.364v5.643c0 1.747.307 2.39.307 2.973 0 .737-.43 1.41-1.35 1.41-.858 0-1.288-.521-1.41-.98l-.183-.828c-1.104 1.103-2.73 1.93-4.6 1.93-2.942 0-4.812-1.84-4.812-4.475 0-2.789 2.207-4.414 5.855-4.414h3.127v-1.259zm0 3.405h-3.034c-1.901 0-2.944.735-2.944 2.084 0 1.318.95 2.146 2.514 2.146 1.011 0 2.33-.46 3.464-1.502v-2.728zm7.204-5.887c-.705 0-1.257-.552-1.257-1.288 0-.705.552-1.288 1.257-1.288h1.933v-3.248c0-.859.674-1.533 1.531-1.533.859 0 1.533.674 1.533 1.533v3.248h3.587c.706 0 1.257.583 1.257 1.288 0 .736-.551 1.288-1.257 1.288h-3.587v7.542c0 1.809.827 2.483 1.993 2.483 1.043 0 1.38-.552 2.024-.552.643 0 1.226.43 1.226 1.196 0 .46-.215.889-.737 1.196-.95.611-2.237.766-2.942.766-3.127 0-4.628-2.36-4.628-5.15v-7.48h-1.933zm15.667-6.898c0-1.102.888-1.991 1.992-1.991 1.105 0 1.993.889 1.993 1.99a1.99 1.99 0 01-1.993 1.994 1.99 1.99 0 01-1.992-1.993zm-1.35 16.677h2.484v-9.778h-2.423c-.705 0-1.255-.553-1.255-1.289 0-.706.55-1.288 1.255-1.288h4.2c.736 0 1.289.582 1.289 1.32V84.26h2.513c.705 0 1.258.552 1.258 1.257 0 .736-.553 1.289-1.258 1.289h-8.063c-.705 0-1.257-.553-1.257-1.289 0-.705.552-1.257 1.257-1.257zM208.93 71.6c4.292 0 6.745 3.342 6.745 7.756 0 4.384-2.392 7.757-6.745 7.757-4.384 0-6.775-3.373-6.775-7.757 0-4.414 2.453-7.756 6.775-7.756zm3.679 7.756c0-3.158-1.41-5.211-3.679-5.211-2.27 0-3.678 2.053-3.678 5.211 0 3.158 1.409 5.244 3.678 5.244 2.268 0 3.679-2.086 3.679-5.244zm7.205-3.371c0-1.41-.337-2.207-.337-2.79 0-.767.459-1.442 1.379-1.442.798 0 1.227.4 1.38.981l.214.828c1.35-1.287 3.066-1.961 4.354-1.961 3.157 0 5.211 1.533 5.211 5.67v8.187c0 .858-.675 1.532-1.532 1.532-.89 0-1.533-.674-1.533-1.532V77.27c0-2.237-.89-3.125-2.759-3.125-1.042 0-2.33.644-3.312 1.471v9.842c0 .858-.674 1.532-1.532 1.532-.89 0-1.533-.674-1.533-1.532v-9.473zM81.608 95.82c0-.859.674-1.533 1.533-1.533.889 0 1.564.674 1.564 1.533v7.296h7.326V95.82c0-.859.676-1.533 1.533-1.533.89 0 1.564.674 1.564 1.533v17.843c0 .856-.674 1.532-1.564 1.532a1.52 1.52 0 01-1.533-1.532v-7.818h-7.326v7.818c0 .856-.675 1.532-1.564 1.532a1.52 1.52 0 01-1.533-1.532V95.82zm27.561 5.64c0-.858.645-1.532 1.533-1.532.86 0 1.533.674 1.533 1.533v9.473c0 1.441.307 2.238.307 2.79 0 .799-.43 1.471-1.38 1.471-.797 0-1.165-.43-1.38-.981l-.214-.859c-1.319 1.288-2.942 1.962-4.568 1.962-2.973 0-4.996-1.532-4.996-5.672v-8.184c0-.86.674-1.533 1.531-1.533.89 0 1.534.674 1.534 1.533v8.184c0 2.238.919 3.16 2.759 3.16 1.042 0 2.33-.646 3.341-1.503v-9.841zm11.007-.92c.766-.305 1.84-.703 2.973-.703 4.6 0 6.807 3.095 6.807 7.725 0 5.09-2.453 7.755-5.826 7.755-1.226 0-3.005-.613-4.353-1.962l-.214.765c-.185.616-.552 1.074-1.38 1.074-.92 0-1.38-.673-1.38-1.47 0-.554.307-1.349.307-2.79V94.41c0-.857.674-1.531 1.533-1.531.888 0 1.533.674 1.533 1.531v6.131zm0 10.762c1.225 1.102 2.514 1.501 3.341 1.501 2.33 0 3.342-2.084 3.342-5.241 0-3.127-1.043-5.213-3.74-5.213-1.074 0-2.208.307-2.943.705v8.248zM36.014 13.735L10.72 39.943 27.181 7.81a62.355 62.355 0 018.833 5.924zM5.62 37.11l8.377-34.75a63.152 63.152 0 019.819 3.719L5.62 37.11zm12.643 11.621l30.108-21.625a59.451 59.451 0 015.284 9.587L18.263 48.732zm2.025 5.468l34.73-14.084a58.11 58.11 0 012.765 10.696L20.288 54.2zm18.579-38.03a61.266 61.266 0 017.327 7.928l-31.182 19.79L38.867 16.17zm-23.85 59.926l31.188 19.79a61.224 61.224 0 01-7.326 7.934L15.016 76.096zM58.24 54.45c.176 1.861.266 3.727.266 5.55 0 1.821-.09 3.68-.265 5.533L20.976 59.99l37.264-5.54zM0 35.553V0c3.475.198 6.94.675 10.306 1.423L0 35.553zm18.265 35.7l35.398 12.036a59.62 59.62 0 01-5.281 9.589L18.265 71.253zm2.025-5.47l37.495 3.384a58.084 58.084 0 01-2.762 10.7L20.29 65.783zm6.903 46.4l-16.469-32.14 25.304 26.211a62.367 62.367 0 01-8.835 5.93zm-13.183 5.452L5.626 82.877l18.204 31.038a63.373 63.373 0 01-9.82 3.72zM.01 120L.006 84.436l10.312 34.14A64.661 64.661 0 01.01 120z" fill="#353535" fill-rule="evenodd"/></svg>